<?xml version="1.0" encoding="UTF-8"?> <svg xmlns="http://www.w3.org/2000/svg" xmlns:xlink="http://www.w3.org/1999/xlink" width="85px" height="74px" viewBox="0 0 85 74" version="1.1"><title>diamond</title><g id="Page-1" stroke="none" stroke-width="1" fill="none" fill-rule="evenodd"><g id="Artboard" transform="translate(-535.000000, -167.000000)" fill-rule="nonzero"><g id="diamond" transform="translate(535.000000, 167.000000)"><g id="Group" transform="translate(0.000000, 19.000000)" fill="#C11F7B"><polygon id="Path" points="62.3333389 2.84482784 57.210294 8.75638009 42.2434927 47.5882801 42.5000038 54.2413842 85.0000076 2.84482784 81.9900629 0 66.4061615 0"></polygon><polygon id="Path" points="0 2.84482784 42.5000038 54.2413842 43.0532594 48.3546767 27.4742691 7.94200071 22.6666687 2.84482784 18.9491461 0 3.89753368 0"></polygon></g><g id="Group" fill="#ED2697"><polygon id="Path" points="73.6666733 0 69.1335284 3.29963363 61.3063499 18.4935683 62.3333389 22.000002 85.0000076 22.000002"></polygon><polygon id="Path" points="11.3333343 0 16.2928015 4.12701704 24.3084911 19.6872518 22.6666687 22.000002 0 22.000002"></polygon></g><polygon id="Path" fill="#EF61B2" points="63 21.8321678 43 73 23 21.8321678 28.0285714 19 57.6285714 19"></polygon><polygon id="Path" fill="#ED2697" points="63 21.8321678 43 73 43 19 57.6285714 19"></polygon><g id="Group" transform="translate(11.000000, 0.000000)" fill="#EF61B2"><polygon id="Path" points="31.5000028 0 31.9604756 3.64815033 46.7597496 19.8905684 51.5454592 22.000002 63.0000056 0"></polygon><polygon id="Path" points="31.5000028 0 31.9354665 2.66493357 16.9792652 19.0795017 11.4545465 22.000002 0 0"></polygon></g><polygon id="Path" fill="#FFB2DE" points="63 22 23 22 43 0"></polygon><polygon id="Path" fill="#F587C5" points="63 22 43 22 43 0"></polygon></g></g></g></svg> 