<?xml version="1.0" encoding="UTF-8"?> <svg xmlns="http://www.w3.org/2000/svg" xmlns:xlink="http://www.w3.org/1999/xlink" width="77px" height="91px" viewBox="0 0 77 91" version="1.1"><title>money-bag</title><g id="Page-1" stroke="none" stroke-width="1" fill="none" fill-rule="evenodd"><g id="Artboard" transform="translate(-964.000000, -155.000000)"><g id="money-bag" transform="translate(964.000000, 155.000000)"><g id="Group" fill-rule="nonzero"><path d="M48.5963169,87.5519962 L19.8036801,87.5519962 C8.90773162,87.5519962 0.024110999,78.8128706 5.67660738e-15,68.0709931 L5.67660738e-15,67.8869971 C5.67660738e-15,52.2497318 11.1763885,38.7542413 22.109444,27.6153018 C22.591835,27.1238478 23.251382,26.8469988 23.939999,26.8469988 L44.4599981,26.8469988 C45.1484441,26.8469988 45.808333,27.1238478 46.290553,27.6153018 C57.2236085,38.7542413 68.3999971,52.2497318 68.3999971,67.8869971 L68.3999971,68.0725321 C68.3758861,78.8128706 59.4922654,87.5519962 48.5963169,87.5519962 L48.5963169,87.5519962 Z" id="Path" fill="#4650AD"></path><path d="M44.4599981,26.8469988 L34.1999985,26.8469988 L34.1999985,87.5519962 L48.5963169,87.5519962 C59.4922654,87.5519962 68.3758861,78.8128706 68.3996551,68.0725321 L68.3999971,67.8869971 C68.3999971,52.2497318 57.2236085,38.7542413 46.290553,27.6153018 C45.808333,27.1238478 45.1484441,26.8469988 44.4599981,26.8469988 L44.4599981,26.8469988 Z" id="Path" fill="#363E8A"></path><path d="M44.4599981,21.7169991 L23.939999,21.7169991 C23.132708,21.7169991 22.372442,21.3368661 21.8879991,20.6909991 C18.1436122,15.6984833 16.2449993,10.1751836 16.2449993,4.27499982 L16.2449993,2.56499989 C16.2449993,1.14843595 17.3934353,0 18.8099992,0 L20.5199991,0 C25.2703789,0 31.4665636,3.07663187 34.1999985,4.5735658 C36.9334334,3.07663187 43.1296181,0 47.8799979,0 L49.5899979,0 C51.0065618,0 52.1549978,1.14843595 52.1549978,2.56499989 L52.1549978,4.27499982 C52.1549978,10.1753546 50.2563848,15.6984833 46.511998,20.6909991 C46.027555,21.3368661 45.2674601,21.7169991 44.4599981,21.7169991 Z" id="Path" fill="#4650AD"></path><path d="M44.4599981,21.7169991 C45.2674601,21.7169991 46.027555,21.3368661 46.511998,20.6909991 C50.2563848,15.6984833 52.1549978,10.1753546 52.1549978,4.27499982 L52.1549978,2.56499989 C52.1549978,1.14843595 51.0065618,0 49.5899979,0 L47.8799979,0 C43.1296181,0 36.9334334,3.07663187 34.1999985,4.5735658 L34.1999985,21.7169991 L44.4599981,21.7169991 Z" id="Path" fill="#363E8A"></path><polygon id="Path" fill="#ED2697" points="21.3749991 19.9851111 47.024998 19.9851111 47.024998 28.3671888 21.3749991 28.3671888"></polygon><polygon id="Path" fill="#C11F7B" points="34.1999985 19.9851111 47.024998 19.9851111 47.024998 28.3671888 34.1999985 28.3671888"></polygon><path d="M37.3893194,55.3029366 C36.9931124,55.1628876 36.5895524,55.0173666 36.1856504,54.8670576 L36.1856504,47.6335869 C36.9277904,47.8894029 37.3118564,48.2616699 37.3626434,48.3134829 C38.1398384,49.1915679 39.4815043,49.2798039 40.3672843,48.5080809 C41.2573392,47.7324249 41.3501922,46.382209 40.5745363,45.492325 C39.8441953,44.6542541 38.3299903,43.6027751 36.1856504,43.2443591 L36.1856504,42.0659982 C36.1856504,40.8854142 35.2287345,39.9284983 34.0481505,39.9284983 C32.8675666,39.9284983 31.9106506,40.8854142 31.9106506,42.0659982 L31.9106506,43.4811941 C31.7608546,43.5201821 31.6098616,43.5622481 31.4571586,43.6082471 C28.8730068,44.3866391 26.9431008,46.593223 26.4203539,49.3668429 C25.9410409,51.9101258 26.7657738,54.3703027 28.5722178,55.7872086 C29.4369647,56.4655656 30.4925477,57.0871505 31.9106506,57.7347275 L31.9106506,67.1248501 C30.8762717,66.9873661 30.1026677,66.6491281 28.8906198,65.8563722 C27.9025818,65.2099922 26.5780159,65.4870122 25.9318069,66.4750501 C25.2855979,67.4629171 25.5624469,68.787654 26.5504849,69.433863 C28.6464318,70.804941 30.1199387,71.2774139 31.9106506,71.4253289 L31.9106506,72.8459969 C31.9106506,74.0265808 32.8675666,74.9834968 34.0481505,74.9834968 C35.2287345,74.9834968 36.1856504,74.0265808 36.1856504,72.8459969 L36.1856504,71.2256009 C37.5902444,70.8818909 38.8676143,70.201482 39.9493603,69.20763 C41.3958492,67.8786181 42.3720882,66.0779882 42.6983562,64.1374802 C43.3691891,60.1477084 41.2852122,56.6798286 37.3893194,55.3029366 L37.3893194,55.3029366 Z M31.2105767,52.4234677 C30.6729527,52.0017818 30.4415897,51.1127528 30.6214817,50.1585728 C30.7572557,49.4383209 31.1638937,48.6024729 31.9106506,48.0804099 L31.9106506,52.9082527 C31.6573996,52.7499067 31.4209066,52.5884827 31.2105767,52.4234677 Z M38.4825223,63.4286853 C38.2744154,64.6665542 37.4961944,65.9723102 36.1856504,66.6795661 L36.1856504,59.4173674 C38.6919973,60.4219924 38.6312923,62.5444443 38.4825223,63.4286853 Z" id="Shape" fill="#FFFA8C"></path><path d="M37.3893194,55.3029366 C36.9931124,55.1628876 36.5895524,55.0173666 36.1856504,54.8670576 L36.1856504,47.6335869 C36.9277904,47.8894029 37.3118564,48.2616699 37.3626434,48.3134829 C38.1398384,49.1915679 39.4815043,49.2798039 40.3672843,48.5080809 C41.2573392,47.7324249 41.3501922,46.382209 40.5745363,45.492325 C39.8441953,44.6542541 38.3299903,43.6027751 36.1856504,43.2443591 L36.1856504,42.0659982 C36.1856504,40.9367142 35.3092755,40.0143403 34.1999985,39.9361933 L34.1999985,74.9758018 C35.3094465,74.8976548 36.1856504,73.9752808 36.1856504,72.8459969 L36.1856504,71.2256009 C37.5902444,70.8818909 38.8676143,70.201482 39.9493603,69.20763 C41.3958492,67.8786181 42.3720882,66.0779882 42.6983562,64.1374802 C43.3691891,60.1477084 41.2852122,56.6798286 37.3893194,55.3029366 Z M38.4825223,63.4286853 C38.2744154,64.6665542 37.4961944,65.9723102 36.1856504,66.6795661 L36.1856504,59.4173674 C38.6919973,60.4219924 38.6312923,62.5444443 38.4825223,63.4286853 Z" id="Shape" fill="#FFC178"></path></g><g id="Group-2" transform="translate(47.000000, 61.000000)" stroke-width="3"><circle id="Oval" stroke="#C11F7B" fill="#ED2697" cx="14" cy="14" r="14"></circle><path d="M9.42687988,18.5731201 L18.5731201,9.42687988 M18.5731201,18.5731201 L9.42687988,9.42687988" id="Combined-Shape" stroke="#FFFFFF" stroke-linecap="round" stroke-linejoin="round"></path></g></g></g></g></svg> 