<?xml version="1.0" encoding="UTF-8"?> <svg xmlns="http://www.w3.org/2000/svg" xmlns:xlink="http://www.w3.org/1999/xlink" width="83px" height="83px" viewBox="0 0 83 83" version="1.1"><title>play</title><defs><path d="M70.844877,12.1549609 C63.0065645,4.31681055 52.5850391,0 41.5,0 C30.4147988,0 19.9932734,4.31681055 12.1547988,12.1549609 C4.31664844,19.9932734 0,30.4149609 0,41.5 C0,52.5850391 4.31664844,63.0067266 12.1547988,70.8450391 C19.9932734,78.6831895 30.4147988,83 41.5,83 C52.5850391,83 63.0065645,78.6831895 70.844877,70.8450391 C78.6831895,63.0065645 83,52.5850391 83,41.5 C83,30.4149609 78.6831895,19.9934355 70.844877,12.1549609 Z" id="path-1"></path><path d="M67.3434894,15.6963652 C60.4457746,8.79879314 51.2748326,5 41.5199986,5 C31.765022,5 22.59408,8.79879314 15.6962226,15.6963652 C8.79865048,22.59408 5,31.7651646 5,41.5199986 C5,51.2748326 8.79865048,60.4459173 15.6962226,67.343632 C22.59408,74.2412041 31.765022,78.0399972 41.5199986,78.0399972 C51.2748326,78.0399972 60.4457746,74.2412041 67.3434894,67.343632 C74.2412041,60.4457746 78.0399972,51.2748326 78.0399972,41.5199986 C78.0399972,31.7651646 74.2412041,22.5942226 67.3434894,15.6963652 Z" id="path-3"></path></defs><g id="Page-1" stroke="none" stroke-width="1" fill="none" fill-rule="evenodd"><g id="Artboard" transform="translate(-721.000000, -161.000000)"><g id="play" transform="translate(721.000000, 161.000000)"><mask id="mask-2" fill="white"><use xlink:href="#path-1"></use></mask><use id="Mask-Copy" fill="#C11F7B" fill-rule="nonzero" xlink:href="#path-1"></use><mask id="mask-4" fill="white"><use xlink:href="#path-3"></use></mask><use id="Mask" fill="#363E8A" fill-rule="nonzero" xlink:href="#path-3"></use><rect id="Rectangle" fill="#4650AD" mask="url(#mask-4)" x="42" y="-3" width="42" height="89"></rect><path d="M57.1404947,39.8558151 L38.1027802,27.2472 C37.6481682,26.9460466 37.0637094,26.9180894 36.5822395,27.1741188 C36.1006707,27.4301482 35.7999988,27.928768 35.7999988,28.4715307 L35.7999988,53.6885647 C35.7999988,54.2312293 36.1006707,54.7298491 36.5822395,54.9858785 C36.801251,55.102416 37.0413936,55.1599981 37.2810424,55.1599981 C37.568384,55.1599981 37.8549357,55.0770093 38.1026814,54.9127973 L57.140396,42.3043784 C57.5524497,42.0315746 57.7999988,41.572095 57.7999988,41.0801458 C57.7999988,40.5880984 57.5525485,40.128815 57.1404947,39.8558151 Z" id="Path" fill="#FFFFFF" fill-rule="nonzero" mask="url(#mask-4)"></path></g></g></g></svg> 